<?xml version="1.0" encoding="UTF-8" standalone="no"?>
<!-- Created with Inkscape (http://www.inkscape.org/) -->

<svg
   xmlns:dc="http://purl.org/dc/elements/1.1/"
   xmlns:cc="http://creativecommons.org/ns#"
   xmlns:rdf="http://www.w3.org/1999/02/22-rdf-syntax-ns#"
   xmlns:svg="http://www.w3.org/2000/svg"
   xmlns="http://www.w3.org/2000/svg"
   xmlns:sodipodi="http://sodipodi.sourceforge.net/DTD/sodipodi-0.dtd"
   xmlns:inkscape="http://www.inkscape.org/namespaces/inkscape"
   version="1.1"
   id="svg815"
   xml:space="preserve"
   width="2953.5867"
   height="3716.9067"
   viewBox="0 0 2953.5867 3716.9067"
   sodipodi:docname="2016_06_FW_Logo_DE_CMYK_Uni-Blau_nogoe.svg"
   inkscape:version="0.92.3 (2405546, 2018-03-11)"><metadata
     id="metadata821"><rdf:RDF><cc:Work
         rdf:about=""><dc:format>image/svg+xml</dc:format><dc:type
           rdf:resource="http://purl.org/dc/dcmitype/StillImage" /><dc:title></dc:title></cc:Work></rdf:RDF></metadata><defs
     id="defs819" /><sodipodi:namedview
     pagecolor="#ffffff"
     bordercolor="#666666"
     borderopacity="1"
     objecttolerance="10"
     gridtolerance="10"
     guidetolerance="10"
     inkscape:pageopacity="0"
     inkscape:pageshadow="2"
     inkscape:window-width="2400"
     inkscape:window-height="1271"
     id="namedview817"
     showgrid="false"
     inkscape:zoom="0.28195488"
     inkscape:cx="1476.7933"
     inkscape:cy="1858.4534"
     inkscape:window-x="2391"
     inkscape:window-y="-9"
     inkscape:window-maximized="1"
     inkscape:current-layer="g823" /><g
     id="g823"
     inkscape:groupmode="layer"
     inkscape:label="ink_ext_XXXXXX"
     transform="matrix(1.3333333,0,0,-1.3333333,0,3716.9067)"><g
       id="g825"
       transform="scale(0.1)"><g
         id="g827"
         transform="scale(1.71023)"><path
           d="M 12952.6,235.291 H 12738 V 13.7979 h 214.6 z M 11.9227,1951.9 H 12952.5 V 13939.8 H 11.9227 Z M 383.925,13565.1 H 12579.7 V 2324.83 H 383.925 Z M 12768.3,15222.2 h 183.2 v 1054.1 h -232.6 v -523.4 h -2.9 l -316.9,523.4 h -194.8 v -1054.1 h 232.6 v 548.1 h 2.9 z m -1359.3,0 h 635.4 v 223.9 h -369.3 v 216.7 h 260.2 v 197.6 h -260.2 v 189.1 h 357.6 v 226.8 H 11409 Z m -575.6,785.1 c 0,49.4 29,75.6 95.9,75.6 65.4,0 114.9,-33.4 143.9,-113.4 l 178.8,80 c -58.1,145.3 -167.1,241.3 -354.7,241.3 -199.2,0 -325.6,-133.8 -325.6,-299.5 0,-328.5 441.9,-327.1 441.9,-503 0,-50.9 -26.2,-75.6 -100.3,-75.6 -59.6,0 -130.8,37.8 -159.9,123.6 l -196.2,-66.9 c 40.7,-161.4 191.9,-261.7 359,-261.7 209.4,0 344.5,113.4 344.5,312.6 0,332.9 -427.3,344.5 -427.3,487 m -789.4,0 c 0,49.4 29,75.6 95.9,75.6 65.4,0 114.8,-33.4 143.9,-113.4 l 178.9,80 c -58.2,145.3 -167.2,241.3 -354.8,241.3 -199.19,0 -325.61,-133.8 -325.61,-299.5 0,-328.5 441.91,-327.1 441.91,-503 0,-50.9 -26.1,-75.6 -100.3,-75.6 -59.6,0 -130.82,37.8 -159.88,123.6 l -196.29,-66.9 c 40.7,-161.4 191.91,-261.7 359.17,-261.7 209.3,0 344.5,113.4 344.5,312.6 0,332.9 -427.4,344.5 -427.4,487 m -693.52,-785.1 h 264.64 v 1054.1 h -264.64 z m -399.77,0 253.01,1054.1 h -261.66 l -135.25,-740 h -2.86 l -149.81,740 h -244.18 l -151.2,-734.2 h -2.93 l -133.72,734.2 h -263.18 l 251.54,-1054.1 h 283.47 l 138.11,632.4 h 2.93 l 133.72,-632.4 z m -1650.83,-719 h 374.04 l -430.29,1772.4 h -400.94 l -268.91,-1188.1 h -4.91 l -264,1188.1 h -400.94 l -430.27,-1772.4 h 371.6 l 264.02,1334.8 h 4.91 l 283.59,-1334.8 h 347.15 l 288.44,1325.1 h 4.91 z m -1895.07,594 v 1178.3 h -374.05 v -1197.9 c 0,-185.8 -88.01,-268.9 -254.26,-268.9 -151.56,0 -256.68,78.2 -256.68,268.9 v 1197.9 h -376.49 v -1195.4 c 0,-374.1 232.24,-601.4 633.17,-601.4 400.95,0 628.31,234.7 628.31,618.5 m -1410.59,-594.1 -374.04,775 c 183.35,68.4 278.7,242 278.7,476.7 0,317.8 -168.68,520.7 -567.18,520.7 h -586.72 v -1772.4 h 376.48 v 694.3 h 163.79 l 303.15,-694.3 z m -466.94,1227.3 c 0,-161.4 -41.56,-251.8 -202.92,-251.8 h -202.9 v 491.4 h 200.46 c 154.02,0 205.36,-63.6 205.36,-239.6 m -1041.45,-625.9 v 569.6 c 0,381.4 -222.47,625.9 -630.74,625.9 -408.27,0 -630.74,-244.5 -630.74,-625.9 v -569.6 c 0,-381.4 222.47,-625.8 630.74,-625.8 408.27,0 630.74,244.4 630.74,625.8 m -376.5,0 c 0,-229.8 -78.23,-325.1 -254.24,-325.1 -176.03,0 -256.71,95.3 -256.71,325.1 v 569.6 c 0,224.9 80.68,315.4 256.71,315.4 176.01,0 254.24,-90.5 254.24,-315.4 z m -1723.495,848.3 h 662.525 v 322.7 H 9.35088 V 14503.1 H 385.835 v 721.2 h 569.613 v 298.3 H 385.835 Z M 243.571,1017.23 H 0 L 289.238,13.7979 H 546.67 L 729.373,685.054 h 2.743 L 909.278,13.7979 H 1166.71 L 1458.72,1017.23 H 1215.13 L 1037.98,269.846 h -2.75 L 842.856,1017.23 H 617.268 L 423.501,271.249 h -2.768 z M 1442.11,200.674 c 0,-117.6444 83.05,-199.3287 225.6,-199.3287 81.65,0 149.48,20.8168 206.19,67.8841 27.69,-37.4218 74.76,-63.6746 153.65,-63.6746 34.61,0 69.18,6.9001 98.24,15.1455 V 134.252 h -19.36 c -33.22,0 -48.43,17.95 -48.43,47.01 v 294.813 c 0,138.402 -78.89,258.796 -286.5,258.796 -145.29,0 -240.8,-66.425 -303.09,-167.462 l 124.58,-74.727 c 35.95,58.179 89.93,85.778 143.93,85.778 69.2,0 103.8,-27.599 103.8,-102.385 v -44.263 h -48.46 c -276.8,0 -350.15,-112.148 -350.15,-231.138 m 207.62,13.857 c 0,51.163 31.8,85.778 141.17,85.778 h 49.82 V 181.262 c -29.07,-26.253 -63.68,-42.86 -112.1,-42.86 -49.82,0 -78.89,19.355 -78.89,76.129 m 672.6,13.858 -132.86,-66.482 C 2250.35,51.1626 2350.01,0 2488.4,0 c 168.86,0 287.89,100.98 287.89,229.736 0,246.339 -372.31,200.672 -372.31,303.116 0,34.557 27.68,58.06 92.74,58.06 56.74,0 103.79,-22.1 137.01,-76.07 l 137.02,51.22 c -42.93,101.039 -142.57,167.464 -282.35,167.464 -186.82,0 -289.26,-98.292 -289.26,-220.089 0,-249.086 373.68,-200.671 373.68,-305.863 0,-41.515 -29.06,-65.02 -91.34,-65.02 -56.74,0 -120.39,27.655 -159.15,85.835 M 3414.25,1017.23 H 3170.68 L 3459.92,13.7979 h 257.43 l 182.7,671.2561 h 2.73 L 4079.96,13.7979 h 257.41 L 4629.38,1017.23 H 4385.81 L 4208.65,269.846 h -2.77 l -192.37,747.384 h -225.56 l -193.8,-745.981 h -2.74 z M 4765.02,837.313 h 197.91 V 1017.23 H 4765.02 Z M 4972.63,721.011 H 4755.35 V 13.7979 h 217.28 z M 5242.5,228.389 5109.64,161.907 C 5170.52,51.1626 5270.18,0 5408.57,0 c 168.86,0 287.86,100.98 287.86,229.736 0,246.339 -372.28,200.672 -372.28,303.116 0,34.557 27.68,58.06 92.71,58.06 56.74,0 103.82,-22.1 137.04,-76.07 l 137.01,51.22 c -42.92,101.039 -142.56,167.464 -282.34,167.464 -186.83,0 -289.26,-98.292 -289.26,-220.089 0,-249.086 373.68,-200.671 373.68,-305.863 0,-41.515 -29.06,-65.02 -91.34,-65.02 -56.74,0 -120.42,27.655 -159.15,85.835 m 668.45,0 -132.87,-66.482 C 5838.99,51.1626 5938.61,0 6077.01,0 c 168.86,0 287.91,100.98 287.91,229.736 0,246.339 -372.35,200.672 -372.35,303.116 0,34.557 27.72,58.06 92.74,58.06 56.78,0 103.85,-22.1 137.06,-76.07 l 137,51.22 c -42.92,101.039 -142.56,167.464 -282.36,167.464 -186.82,0 -289.26,-98.292 -289.26,-220.089 0,-249.086 373.69,-200.671 373.69,-305.863 0,-41.515 -29.06,-65.02 -91.33,-65.02 -56.78,0 -120.4,27.655 -159.16,85.835 M 6459,456.72 V 282.361 C 6459,123.14 6576.65,1.3453 6786.97,1.3453 c 167.46,0 262.95,59.5245 312.82,179.9167 l -149.51,58.12 c -31.81,-59.465 -71.98,-84.373 -137,-84.373 -89.99,0 -137,45.665 -137,135.595 v 40.169 h 423.51 v 116.242 c 0,155.009 -112.15,286.511 -315.57,286.511 -215.93,0 -325.22,-130.1 -325.22,-276.806 m 217.28,13.86 c 0,71.92 34.56,112.089 116.24,112.089 74.73,0 116.25,-38.767 116.25,-109.342 v -30.462 h -232.49 z m 748.73,250.431 H 7229.83 V 13.7979 h 217.28 V 501.042 c 26.32,37.305 72.04,62.272 130.16,62.272 74.73,0 113.44,-41.572 113.44,-131.502 V 13.7979 h 217.28 V 438.713 c 0,178.571 -91.34,294.813 -257.4,294.813 -88.58,0 -161.9,-26.313 -218.68,-80.282 h -2.75 z M 8471.24,228.389 8338.4,161.907 C 8399.32,51.1626 8498.96,0 8637.36,0 c 168.81,0 287.86,100.98 287.86,229.736 0,246.339 -372.29,200.672 -372.29,303.116 0,34.557 27.65,58.06 92.67,58.06 56.78,0 103.85,-22.1 137.06,-76.07 l 137,51.22 c -42.86,101.039 -142.55,167.464 -282.3,167.464 -186.87,0 -289.26,-98.292 -289.26,-220.089 0,-249.086 373.63,-200.671 373.63,-305.863 0,-41.515 -29.06,-65.02 -91.27,-65.02 -56.83,0 -120.45,27.655 -159.22,85.835 m 548.06,226.869 v -177.05 c 0,-143.956 105.19,-276.8627 319.66,-276.8627 148.11,0 243.59,63.6746 296.22,177.1687 l -149.46,58.12 c -24.91,-55.372 -63.73,-80.28 -123.19,-80.28 -78.88,0 -125.95,41.572 -125.95,134.25 v 153.663 c 0,94.08 48.47,128.697 125.95,128.697 53.96,0 96.88,-22.103 121.79,-76.132 l 146.71,60.927 c -51.23,113.437 -157.82,175.767 -292.07,175.767 -210.32,0 -319.66,-128.754 -319.66,-278.268 m 946.65,589.632 H 9748.61 V 13.7979 h 217.34 V 502.387 c 26.31,34.615 71.95,60.927 130.15,60.927 74.7,0 112,-41.572 112,-131.502 V 13.7979 h 218.7 V 438.713 c 0,178.571 -90,294.813 -256,294.813 -83.1,0 -149.5,-22.16 -202.1,-69.232 h -2.75 z m 574.35,-844.216 c 0,-117.6444 83,-199.3287 225.6,-199.3287 81.6,0 149.4,20.8168 206.2,67.8841 27.7,-37.4218 74.7,-63.6746 153.6,-63.6746 34.6,0 69.2,6.9001 98.3,15.1455 V 134.252 h -19.4 c -33.3,0 -48.5,17.95 -48.5,47.01 v 294.813 c 0,138.402 -78.8,258.796 -286.5,258.796 -145.3,0 -240.8,-66.425 -303,-167.462 l 124.6,-74.727 c 35.9,58.179 89.9,85.778 143.9,85.778 69.2,0 103.8,-27.599 103.8,-102.385 v -44.263 h -48.5 c -276.8,0 -350.1,-112.148 -350.1,-231.138 m 207.6,13.857 c 0,51.163 31.8,85.778 141.1,85.778 h 49.9 V 181.262 c -29.1,-26.253 -63.7,-42.86 -112.1,-42.86 -49.8,0 -78.9,19.355 -78.9,76.129 m 606.1,505.137 h -83 V 570.214 h 83 V 13.7979 h 217.3 V 570.214 h 231.2 V 13.7979 h 217.3 V 570.214 h 228.3 V 257.391 c 0,-164.6565 60.9,-254.64329 229.7,-254.64329 59.6,0 112.1,12.45489 155,31.86699 L 12619,164.714 c -19.4,-5.555 -40.1,-8.36 -59.5,-8.36 -58.1,0 -94.1,29.117 -94.1,89.987 v 322.471 h 167.4 v 152.199 h -167.4 v 200.734 h -149.5 l -57.6,-202.077 h -248.2 v 29.06 c 0,77.532 35.9,130.1 161.9,134.252 l -9.7,142.55 c -269.9,-2.8 -359.8,-128.752 -359.8,-274.054 v -31.808 h -240.9 v 29.06 c 0,77.532 36,130.1 161.9,134.252 l -9.6,142.55 C 11444,1022.73 11354,896.778 11354,751.476 v -31.808"
           style="fill:#113e74;fill-opacity:1;fill-rule:nonzero;stroke:none"
           id="path829"
           inkscape:connector-curvature="0"
           sodipodi:nodetypes="ccccccccccccccccccccccccccccccccccccccccccsccssssccssccsccssssccsscccccccccccccccccccccccccccccccccccccccccccsssccsscccssccccccccsccsccssssscssssssscccccccccccccccccccccccccccccscsccssssccsscsccsccscccssssccssssccccccccccccccccccccccccccccccssssccsssscccssssccssssccssccssccsscsssccscccccssccsscccccssssccssssccssccssssccsccccccssccssccccscsccssssccsscsccsccscccccccccccccssccssccccccccsccsccsccsc" /></g></g></g></svg>