<?xml version="1.0" encoding="UTF-8" standalone="no"?>
<!-- Created with Inkscape (http://www.inkscape.org/) -->

<svg
   xmlns:dc="http://purl.org/dc/elements/1.1/"
   xmlns:cc="http://creativecommons.org/ns#"
   xmlns:rdf="http://www.w3.org/1999/02/22-rdf-syntax-ns#"
   xmlns:svg="http://www.w3.org/2000/svg"
   xmlns="http://www.w3.org/2000/svg"
   xmlns:sodipodi="http://sodipodi.sourceforge.net/DTD/sodipodi-0.dtd"
   xmlns:inkscape="http://www.inkscape.org/namespaces/inkscape"
   version="1.1"
   id="svg815"
   xml:space="preserve"
   width="2953.5867"
   height="3716.9067"
   viewBox="0 0 2953.5867 3716.9067"
   sodipodi:docname="FW_Logo_Uni-Blau_fw_down.svg"
   inkscape:version="0.92.3 (2405546, 2018-03-11)"><metadata
     id="metadata821"><rdf:RDF><cc:Work
         rdf:about=""><dc:format>image/svg+xml</dc:format><dc:type
           rdf:resource="http://purl.org/dc/dcmitype/StillImage" /><dc:title /></cc:Work></rdf:RDF></metadata><defs
     id="defs819" /><sodipodi:namedview
     pagecolor="#ffffff"
     bordercolor="#666666"
     borderopacity="1"
     objecttolerance="10"
     gridtolerance="10"
     guidetolerance="10"
     inkscape:pageopacity="0"
     inkscape:pageshadow="2"
     inkscape:window-width="2400"
     inkscape:window-height="1271"
     id="namedview817"
     showgrid="false"
     inkscape:zoom="0.28195488"
     inkscape:cx="1761.9257"
     inkscape:cy="1290.9867"
     inkscape:window-x="2391"
     inkscape:window-y="-9"
     inkscape:window-maximized="1"
     inkscape:current-layer="g823" /><g
     id="g823"
     inkscape:groupmode="layer"
     inkscape:label="ink_ext_XXXXXX"
     transform="matrix(1.3333333,0,0,-1.3333333,0,3716.9067)"><g
       id="g825"
       transform="scale(0.1)"><g
         id="g827"
         transform="scale(1.71023)"><path
           d="M 11.9227,1951.9 H 12952.5 V 13939.8 H 11.9227 Z M 383.925,13565.1 H 12579.7 V 2324.83 H 383.925 Z M 12768.3,15222.2 h 183.2 v 1054.1 h -232.6 v -523.4 h -2.9 l -316.9,523.4 h -194.8 v -1054.1 h 232.6 v 548.1 h 2.9 z m -1359.3,0 h 635.4 v 223.9 h -369.3 v 216.7 h 260.2 v 197.6 h -260.2 v 189.1 h 357.6 v 226.8 H 11409 Z m -575.6,785.1 c 0,49.4 29,75.6 95.9,75.6 65.4,0 114.9,-33.4 143.9,-113.4 l 178.8,80 c -58.1,145.3 -167.1,241.3 -354.7,241.3 -199.2,0 -325.6,-133.8 -325.6,-299.5 0,-328.5 441.9,-327.1 441.9,-503 0,-50.9 -26.2,-75.6 -100.3,-75.6 -59.6,0 -130.8,37.8 -159.9,123.6 l -196.2,-66.9 c 40.7,-161.4 191.9,-261.7 359,-261.7 209.4,0 344.5,113.4 344.5,312.6 0,332.9 -427.3,344.5 -427.3,487 m -789.4,0 c 0,49.4 29,75.6 95.9,75.6 65.4,0 114.8,-33.4 143.9,-113.4 l 178.9,80 c -58.2,145.3 -167.2,241.3 -354.8,241.3 -199.19,0 -325.61,-133.8 -325.61,-299.5 0,-328.5 441.91,-327.1 441.91,-503 0,-50.9 -26.1,-75.6 -100.3,-75.6 -59.6,0 -130.82,37.8 -159.88,123.6 l -196.29,-66.9 c 40.7,-161.4 191.91,-261.7 359.17,-261.7 209.3,0 344.5,113.4 344.5,312.6 0,332.9 -427.4,344.5 -427.4,487 m -693.52,-785.1 h 264.64 v 1054.1 h -264.64 z m -399.77,0 253.01,1054.1 h -261.66 l -135.25,-740 h -2.86 l -149.81,740 h -244.18 l -151.2,-734.2 h -2.93 l -133.72,734.2 h -263.18 l 251.54,-1054.1 h 283.47 l 138.11,632.4 h 2.93 l 133.72,-632.4 z m -1650.83,-719 h 374.04 l -430.29,1772.4 h -400.94 l -268.91,-1188.1 h -4.91 l -264,1188.1 h -400.94 l -430.27,-1772.4 h 371.6 l 264.02,1334.8 h 4.91 l 283.59,-1334.8 h 347.15 l 288.44,1325.1 h 4.91 z m -1895.07,594 v 1178.3 h -374.05 v -1197.9 c 0,-185.8 -88.01,-268.9 -254.26,-268.9 -151.56,0 -256.68,78.2 -256.68,268.9 v 1197.9 h -376.49 v -1195.4 c 0,-374.1 232.24,-601.4 633.17,-601.4 400.95,0 628.31,234.7 628.31,618.5 m -1410.59,-594.1 -374.04,775 c 183.35,68.4 278.7,242 278.7,476.7 0,317.8 -168.68,520.7 -567.18,520.7 h -586.72 v -1772.4 h 376.48 v 694.3 h 163.79 l 303.15,-694.3 z m -466.94,1227.3 c 0,-161.4 -41.56,-251.8 -202.92,-251.8 h -202.9 v 491.4 h 200.46 c 154.02,0 205.36,-63.6 205.36,-239.6 m -1041.45,-625.9 v 569.6 c 0,381.4 -222.47,625.9 -630.74,625.9 -408.27,0 -630.74,-244.5 -630.74,-625.9 v -569.6 c 0,-381.4 222.47,-625.8 630.74,-625.8 408.27,0 630.74,244.4 630.74,625.8 m -376.5,0 c 0,-229.8 -78.23,-325.1 -254.24,-325.1 -176.03,0 -256.71,95.3 -256.71,325.1 v 569.6 c 0,224.9 80.68,315.4 256.71,315.4 176.01,0 254.24,-90.5 254.24,-315.4 z m -1723.495,848.3 h 662.525 v 322.7 H 9.35088 V 14503.1 H 385.835 v 721.2 h 569.613 v 298.3 H 385.835 Z"
           style="fill:#113e74;fill-opacity:1;fill-rule:nonzero;stroke:none"
           id="path829"
           inkscape:connector-curvature="0"
           sodipodi:nodetypes="cccccccccccccccccccccccccccccccccccccsccssssccssccsccssssccsscccccccccccccccccccccccccccccccccccccccccccsssccsscccssccccccccsccsccssssscsssssssccccccccccc" /></g></g><text
       xml:space="preserve"
       style="font-style:normal;font-weight:normal;font-size:34.69251633px;line-height:1.25;font-family:sans-serif;letter-spacing:0px;word-spacing:0px;fill:#000000;fill-opacity:1;stroke:none;stroke-width:0.86731297"
       x="-16.155426"
       y="-65.346451"
       id="text826"
       transform="scale(0.87956637,-1.1369239)"><tspan
         sodipodi:role="line"
         x="-16.155426"
         y="-65.346451"
         id="tspan824"
         style="stroke-width:0.86731297"><tspan
           x="-16.155426"
           y="-65.346451"
           style="font-style:normal;font-variant:normal;font-weight:bold;font-stretch:normal;font-size:265.97595215px;font-family:Arial;-inkscape-font-specification:'Arial, Bold';font-variant-ligatures:normal;font-variant-caps:normal;font-variant-numeric:normal;font-feature-settings:normal;text-align:start;writing-mode:lr-tb;text-anchor:start;fill:#113e74;fill-opacity:1;stroke-width:0.86731297"
           id="tspan822">Bin ich interessant?</tspan></tspan></text>
</g></svg>