<?xml version="1.0" encoding="UTF-8" standalone="no"?>
<svg
   xmlns:dc="http://purl.org/dc/elements/1.1/"
   xmlns:cc="http://creativecommons.org/ns#"
   xmlns:rdf="http://www.w3.org/1999/02/22-rdf-syntax-ns#"
   xmlns:svg="http://www.w3.org/2000/svg"
   xmlns="http://www.w3.org/2000/svg"
   xmlns:sodipodi="http://sodipodi.sourceforge.net/DTD/sodipodi-0.dtd"
   xmlns:inkscape="http://www.inkscape.org/namespaces/inkscape"
   viewBox="0 0 2953.5867 449.99999"
   height="450"
   width="2953.5867"
   xml:space="preserve"
   id="svg2"
   version="1.1"
   sodipodi:docname="FW_Logo_Uni-Blau_only_text.svg"
   inkscape:version="0.92.3 (2405546, 2018-03-11)"><sodipodi:namedview
     pagecolor="#ffffff"
     bordercolor="#666666"
     borderopacity="1"
     objecttolerance="10"
     gridtolerance="10"
     guidetolerance="10"
     inkscape:pageopacity="0"
     inkscape:pageshadow="2"
     inkscape:window-width="3840"
     inkscape:window-height="2035"
     id="namedview9"
     showgrid="false"
     inkscape:zoom="0.35917436"
     inkscape:cx="1443.1317"
     inkscape:cy="2123.3989"
     inkscape:window-x="3827"
     inkscape:window-y="-13"
     inkscape:window-maximized="1"
     inkscape:current-layer="svg2" /><metadata
     id="metadata8"><rdf:RDF><cc:Work
         rdf:about=""><dc:format>image/svg+xml</dc:format><dc:type
           rdf:resource="http://purl.org/dc/dcmitype/StillImage" /><dc:title></dc:title></cc:Work></rdf:RDF></metadata><defs
     id="defs6" /><g
     transform="matrix(1.3333333,0,0,-1.3333333,0,449.99996)"
     id="g10"><g
       transform="scale(0.1)"
       id="g12"><g
         transform="scale(1.71023)"
         id="g14"><path
           id="path16"
           style="fill:#113e74;fill-opacity:1;fill-rule:nonzero;stroke:none"
           d="m 12756.09,802.66272 h 183.2 V 1856.7627 h -232.6 v -523.4 h -2.9 l -316.9,523.4 h -194.8 V 802.66272 h 232.6 v 548.09998 h 2.9 z m -1359.3,0 h 635.4 v 223.89998 h -369.3 v 216.7 h 260.2 v 197.6 h -260.2 v 189.1 h 357.6 v 226.8 h -623.7 z m -575.6,785.09998 c 0,49.4 29,75.6 95.9,75.6 65.4,0 114.9,-33.4 143.9,-113.4 l 178.8,80 c -58.1,145.3 -167.1,241.3 -354.7,241.3 -199.2,0 -325.6,-133.8 -325.6,-299.5 0,-328.5 441.9,-327.1 441.9,-503 0,-50.9 -26.2,-75.59998 -100.3,-75.59998 -59.6,0 -130.8,37.79998 -159.9,123.59998 l -196.2,-66.9 c 40.7,-161.39998 191.9,-261.69998 359,-261.69998 209.4,0 344.5,113.4 344.5,312.59998 0,332.9 -427.3,344.5 -427.3,487 m -789.4,0 c 0,49.4 29,75.6 95.9,75.6 65.4,0 114.8,-33.4 143.9,-113.4 l 178.9,80 c -58.2,145.3 -167.2,241.3 -354.8,241.3 -199.1896,0 -325.6096,-133.8 -325.6096,-299.5 0,-328.5 441.9096,-327.1 441.9096,-503 0,-50.9 -26.1,-75.59998 -100.3,-75.59998 -59.6,0 -130.8196,37.79998 -159.8796,123.59998 l -196.29,-66.9 c 40.7,-161.39998 191.91,-261.69998 359.1696,-261.69998 209.3,0 344.5,113.4 344.5,312.59998 0,332.9 -427.4,344.5 -427.4,487 M 9338.2704,802.66272 h 264.64 V 1856.7627 h -264.64 z m -399.77,0 253.01,1054.09998 h -261.66 l -135.25,-740 h -2.86 l -149.81,740 h -244.18 l -151.2,-734.2 h -2.93 l -133.72,734.2 h -263.18 l 251.54,-1054.09998 h 283.47 l 138.11,632.39998 h 2.93 l 133.72,-632.39998 z M 7287.6704,83.662719 h 374.04 l -430.29,1772.399981 h -400.94 l -268.91,-1188.09998 h -4.91 l -264,1188.09998 h -400.94 L 5461.4504,83.662719 h 371.6 l 264.02,1334.799981 h 4.91 l 283.59,-1334.799981 h 347.15 l 288.44,1325.099981 h 4.91 z M 5392.6004,677.66272 V 1855.9627 h -374.05 V 658.06272 c 0,-185.8 -88.01,-268.9 -254.26,-268.9 -151.56,0 -256.68,78.2 -256.68,268.9 V 1855.9627 h -376.49 V 660.56272 c 0,-374.1 232.24,-601.400001 633.17,-601.400001 400.95,0 628.31,234.700001 628.31,618.500001 m -1410.59,-594.100001 -374.04,775.000001 c 183.35,68.4 278.7,241.99998 278.7,476.69998 0,317.8 -168.68,520.7 -567.18,520.7 h -586.72 V 83.562719 h 376.48 V 777.86272 h 163.79 l 303.15,-694.300001 z m -466.94,1227.299981 c 0,-161.4 -41.56,-251.8 -202.92,-251.8 h -202.9 v 491.4 h 200.46 c 154.02,0 205.36,-63.6 205.36,-239.6 m -1041.45,-625.89998 v 569.59998 c 0,381.4 -222.47,625.9 -630.74,625.9 -408.27,0 -630.74,-244.5 -630.74,-625.9 V 684.96272 c 0,-381.4 222.47,-625.800001 630.74,-625.800001 408.27,0 630.74,244.400001 630.74,625.800001 m -376.5,0 c 0,-229.8 -78.23,-325.1 -254.24,-325.1 -176.03,0 -256.71,95.3 -256.71,325.1 v 569.59998 c 0,224.9 80.68,315.4 256.71,315.4 176.01,0 254.24,-90.5 254.24,-315.4 z M 373.6254,1533.2627 h 662.525 v 322.7 H -2.8587197 V 83.562719 H 373.6254 V 804.76272 h 569.613 v 298.29998 h -569.613 z"
           inkscape:connector-curvature="0"
           sodipodi:nodetypes="cccccccccccccccccccccccccccsccssssccssccsccssssccsscccccccccccccccccccccccccccccccccccccccccccsssccsscccssccccccccsccsccssssscsssssssccccccccccc" /></g></g></g></svg>